<?xml version="1.0" encoding="utf-8"?>
<!-- Generator: Adobe Illustrator 16.0.4, SVG Export Plug-In . SVG Version: 6.00 Build 0)  -->
<!DOCTYPE svg PUBLIC "-//W3C//DTD SVG 1.1//EN" "http://www.w3.org/Graphics/SVG/1.1/DTD/svg11.dtd">
<svg version="1.1" id="Capa_1" xmlns="http://www.w3.org/2000/svg" xmlns:xlink="http://www.w3.org/1999/xlink" x="0px" y="0px"
	 width="32px" height="32px" viewBox="0 0 32 32" enable-background="new 0 0 32 32" xml:space="preserve">
<path fill="#333333" d="M31.286,0.469C30.923,0.164,30.468,0,30.001,0l-0.349,0.031l-17.001,3C11.695,3.199,10.999,4.029,10.999,5
	v17.17C9.984,21.434,8.667,21,7.205,21c-0.85,0-1.7,0.141-2.529,0.416C2.778,22.049,1.256,23.318,0.5,24.9
	c-0.584,1.223-0.659,2.553-0.214,3.746C1.047,30.684,3.209,32,5.794,32c0.85,0,1.7-0.139,2.528-0.416
	c1.897-0.631,3.419-1.9,4.175-3.48c0.325-0.682,0.477-1.396,0.483-2.104h0.018V10l0.348-0.029l16.655-2.939V19.17
	C28.984,18.434,27.669,18,26.206,18c-0.851,0-1.701,0.141-2.529,0.416c-1.897,0.633-3.42,1.902-4.174,3.484
	c-0.584,1.223-0.66,2.553-0.215,3.746C20.05,27.684,22.21,29,24.796,29c0.851,0,1.701-0.139,2.529-0.416
	c1.896-0.631,3.418-1.9,4.174-3.48c0.326-0.682,0.478-1.396,0.483-2.104h0.019V2C32.001,1.41,31.738,0.848,31.286,0.469z
	 M7.688,29.688c-2.396,0.799-4.873,0.019-5.529-1.739c-0.658-1.761,0.751-3.834,3.146-4.634c2.396-0.799,4.873-0.02,5.529,1.74
	C11.493,26.814,10.084,28.889,7.688,29.688z M29.96,5L12.958,8V5L29.96,2V5z M26.652,26.688c-2.397,0.799-4.875,0.019-5.53-1.739
	c-0.658-1.761,0.752-3.834,3.146-4.634c2.398-0.799,4.875-0.02,5.531,1.74C30.458,23.814,29.05,25.889,26.652,26.688z"/>
</svg>
