<?xml version="1.0" encoding="utf-8"?>
<!-- Generator: Adobe Illustrator 16.0.4, SVG Export Plug-In . SVG Version: 6.00 Build 0)  -->
<!DOCTYPE svg PUBLIC "-//W3C//DTD SVG 1.1//EN" "http://www.w3.org/Graphics/SVG/1.1/DTD/svg11.dtd">
<svg version="1.1" id="Capa_1" xmlns="http://www.w3.org/2000/svg" xmlns:xlink="http://www.w3.org/1999/xlink" x="0px" y="0px"
	 width="32px" height="32px" viewBox="0 0 32 32" enable-background="new 0 0 32 32" xml:space="preserve">
<path fill="#333333" d="M15,28.496c0-0.277,0.224-0.5,0.5-0.5h1c0.275,0,0.5,0.223,0.5,0.5c0,0.275-0.225,0.5-0.5,0.5h-1
	C15.224,28.996,15,28.771,15,28.496z M17.5,3h-3C14.223,3,14,3.223,14,3.5C14,3.776,14.223,4,14.5,4h3C17.775,4,18,3.776,18,3.5
	C18,3.223,17.775,3,17.5,3z M27,3v26c0,1.656-1.344,3-3,3H8c-1.657,0-3-1.342-3-3V3c0-1.657,1.342-3,3-3h16C25.656,0,27,1.342,27,3z
	 M25,26.996H7V29c0,0.553,0.448,1,1,1h16c0.551,0,1-0.449,1-1V26.996z M25,6H7v19.996h18V6z M25,3c0-0.552-0.449-1-1-1H8
	C7.448,2,7,2.448,7,3v2h18V3z"/>
</svg>
