<?xml version="1.0" encoding="utf-8"?>
<!-- Generator: Adobe Illustrator 16.0.0, SVG Export Plug-In . SVG Version: 6.00 Build 0)  -->
<!DOCTYPE svg PUBLIC "-//W3C//DTD SVG 1.1//EN" "http://www.w3.org/Graphics/SVG/1.1/DTD/svg11.dtd">
<svg version="1.1" id="Layer_1" xmlns="http://www.w3.org/2000/svg" xmlns:xlink="http://www.w3.org/1999/xlink" x="0px" y="0px"
	 width="32px" height="32px" viewBox="0 0 32 32" enable-background="new 0 0 32 32" xml:space="preserve">
<g id="key">
	<path fill="#333333" d="M22.002,0c-5.523,0-10,4.478-10,10c0,1.285,0.269,2.501,0.713,3.629L0.566,25.777
		C0.215,26.129-0.002,26.463-0.002,27v3c0,1.07,0.929,2,2,2h3c0.536,0,0.875-0.215,1.226-0.564L7.659,30h2.343c1.104,0,2-0.896,2-2
		v-2h2c1.104,0,2-0.896,2-2v-2.344l2.369-2.371C19.5,19.73,20.715,20,22.002,20c5.521,0,10-4.478,10-10S27.523,0,22.002,0z
		 M22.002,18c-1.48,0-2.852-0.43-4.041-1.132l-0.344,0.343l-1.125,1.125l-1.905,1.906c-0.375,0.375-0.586,0.883-0.586,1.414V24h-2
		c-1.104,0-2,0.895-2,2v2H7.659c-0.53,0-1.039,0.211-1.414,0.586l-1.418,1.418L2.001,30l-0.003-2.85l11.665-11.645
		c0,0,0,0.001,0.001,0.002l1.469-1.469c-0.702-1.189-1.132-2.56-1.132-4.04c0-4.418,3.583-8,8-8s8,3.582,8,8S26.42,18,22.002,18z"/>
	<path fill="#333333" d="M27.818,8.239c-1.121-1.562-2.486-2.925-4.055-4.054C23.508,4,23.178,3.954,22.881,4.058
		c-1.389,0.489-2.34,1.439-2.826,2.828C20.018,6.99,20,7.098,20,7.205c0,0.199,0.062,0.396,0.182,0.563
		c1.125,1.564,2.488,2.928,4.053,4.053c0.257,0.184,0.584,0.231,0.882,0.128c1.391-0.486,2.342-1.438,2.83-2.828
		c0.036-0.104,0.055-0.212,0.055-0.319C28,8.603,27.938,8.406,27.818,8.239z M24.818,11.01c-1.479-1.062-2.766-2.35-3.82-3.793
		c0.387-1.103,1.111-1.827,2.182-2.221c1.479,1.065,2.764,2.349,3.816,3.811C26.605,9.902,25.883,10.622,24.818,11.01z"/>
</g>
</svg>
