<?xml version="1.0" encoding="utf-8"?>
<!-- Generator: Adobe Illustrator 17.0.0, SVG Export Plug-In . SVG Version: 6.00 Build 0)  -->
<!DOCTYPE svg PUBLIC "-//W3C//DTD SVG 1.1//EN" "http://www.w3.org/Graphics/SVG/1.1/DTD/svg11.dtd">
<svg version="1.1" id="Capa_1" xmlns="http://www.w3.org/2000/svg" xmlns:xlink="http://www.w3.org/1999/xlink" x="0px" y="0px"
	 width="32px" height="32px" viewBox="0 0 32 32" enable-background="new 0 0 32 32" xml:space="preserve">
<path d="M30.048,27.469c-0.187-0.124-3.577-2.347-8.621-3.439c1.85-2.344,3.038-5.496,3.543-7.595
	c0.701-2.908,0.429-8.598-2.364-12.144C20.973,2.219,18.689,1.125,16,1.125S11.027,2.22,9.396,4.292
	c-2.793,3.545-3.064,9.235-2.364,12.143c0.505,2.098,1.692,5.251,3.543,7.595c-5.044,1.091-8.434,3.315-8.62,3.439
	c-0.681,0.454-0.986,1.302-0.748,2.084c0.236,0.786,0.96,1.323,1.779,1.323h26.031c0.819,0,1.541-0.537,1.779-1.322
	C31.034,28.77,30.729,27.922,30.048,27.469z M8.714,11.117C9.221,7.139,11.5,2.984,16,2.984s6.78,4.156,7.287,8.134
	c0.551,4.142-0.729,8.477-3.32,11.76l-0.303,0.385c-2.217,2.547-5.109,2.547-7.325,0l-0.304-0.385
	C9.446,19.597,8.161,15.257,8.714,11.117z M2.984,29.016c0.128-0.086,3.278-2.151,7.982-3.168l2.309-0.499
	c0.825,0.541,1.729,0.879,2.724,0.879c0.996,0,1.899-0.337,2.724-0.879l2.309,0.499c4.667,1.01,7.806,3.052,7.982,3.168H2.984z"/>
</svg>
